<?xml version="1.0" encoding="utf-8"?>
<!-- Generator: Adobe Illustrator 25.3.1, SVG Export Plug-In . SVG Version: 6.00 Build 0)  -->
<svg version="1.1" id="Layer_1" xmlns="http://www.w3.org/2000/svg" xmlns:xlink="http://www.w3.org/1999/xlink" x="0px" y="0px"
	 viewBox="0 0 3666.7 1000" style="enable-background:new 0 0 3666.7 1000;" xml:space="preserve">
<style type="text/css">
	.st0{fill:#FFFFFF;}
</style>
<g>
	<path class="st0" d="M2266.3,243.4c-130.9,0-237,106.1-237,237s106.1,237,237,237s237-106.1,237-237c0.1-130.8-106-237-236.8-237
		C2266.4,243.4,2266.4,243.4,2266.3,243.4z M2171.9,387.4h136.2l-20.7,33.5h-136.2L2171.9,387.4z M2399.5,552.8l-20.7-33.5h-60.5
		l20.7-33.5h19.2l-23.1-36.8l-64.4,103h-171.8l41.4-66.1H2110l20.6-33.5h132.7l-20.6,33.5h-63.4l-20.6,33.5h93.7l82.8-131.9
		l103.4,165.4h-39.1L2399.5,552.8L2399.5,552.8z"/>
	<path class="st0" d="M3647.2,404.6h-67.6l-72.1,149.3L3434,404.6h-72.2L3470.6,626L3398,770.2h70L3647.2,404.6z M3212.2,603.6
		c-40-2.2-70.7-36.5-68.5-76.5c2-36.9,31.5-66.4,68.5-68.5c38.5-0.5,70.1,30.3,70.7,68.8c0,1.3,0,2.6-0.1,3.9
		c1.5,38.5-28.5,70.9-67,72.3C3214.7,603.7,3213.4,603.7,3212.2,603.6 M3201.1,661.5c30.1,0.2,59.2-11,81.3-31.5v28h64.5V404.6
		h-64.5v28c-20.9-20.7-49.3-32.3-78.7-32c-70.8,1.3-127.2,59.7-125.9,130.5C3075.8,601.1,3131,659.5,3201.1,661.5 M3044.3,282.3
		l-64.6,20.3V658h64.6V282.3z M2820.1,468.6h-81.2V365.1h81.2c33.5,0,56.9,21.3,56.9,51.9s-23.4,51.8-56.9,51.8 M2668.7,302.5V658
		h70.2V528.5h86.3c69.5,0,121.4-48.2,121.4-113.8s-49.9-112.2-118.9-112.2H2668.7z"/>
	<rect x="1683.6" y="30.5" class="st0" width="23.4" height="936.9"/>
</g>
<path class="st0" d="M696.6,332h0.8c63.3,48.8,172.8,168.8,139.5,202.6c-80.3,70.3-200.3,70.3-280.5,0
	c-33.1-33.8,75.7-153.7,139.6-202.2L696.6,332z M808,192.3c-68.1-41.6-153.8-41.6-222,0c-0.2,0.4-0.1,0.8,0.3,1
	c0.2,0.1,0.5,0.1,0.8,0c41.3-8.9,104.1,26.7,109.9,30.3l0,0c6-3.6,68.6-39.2,109.9-30.3c0.3,0.3,0.7,0.3,1,0
	C808.2,193.1,808.2,192.6,808,192.3z M547.4,222.3l-0.9,0.7c-76,75.3-84.3,195.3-19.5,280.4c0,0,0.8,0.6,1.1,0c0.3-0.3,0.3-0.7,0-1
	c-16-49.7,67.1-171.7,110-222.7c0.1-0.2,0.1-0.5,0-0.7c0.1-0.2,0.1-0.5,0-0.7C573.1,213.6,551,220.4,547.4,222.3z M755.1,278.3
	c-0.4,0.4-0.4,1,0,1.3c42.6,51,125.9,173,109.7,223v1c0,0,0.9,0,1.1,0c64.9-85,56.8-204.9-18.9-280.4l-0.9-0.7
	C842.2,220.4,820.1,213.6,755.1,278.3z M288.6,653.7h-31.2l-70.7,181H215l17.5-47.3h80.3l17.4,47.3h28.4L288.6,653.7z M241.2,763.6
	l31.3-82.8l31.2,82.8H241.2z M171.8,739.3v95.3h-25.7V811c-6.3,8.8-14.8,16-24.5,20.7c-10.7,4.8-22.3,7.2-34.1,7
	c-12,0.2-24-2-35.1-6.5c-10.5-4.4-19.8-11.2-27.2-19.9c-7.9-8.7-14-18.9-17.8-30.1c-8-25-8-51.9,0-77c3.8-11.1,9.9-21.3,17.9-29.9
	c7.8-8.3,17.3-14.8,27.8-18.9c11.3-4.4,23.4-6.5,35.5-6.4c19.8-0.7,39.3,5.4,55.2,17.2c14.3,11.6,23.6,28.3,25.9,46.6h-28.4
	c-2.3-11.4-8.8-21.5-18.1-28.4c-10-7.2-22.1-10.9-34.4-10.5c-16.4-0.7-32.3,6.3-42.9,18.9c-11.2,14.3-16.8,32.2-15.8,50.4
	c-1,18.4,4.8,36.5,16.2,51c10.8,12.6,26.8,19.5,43.4,18.9c14.6,0.4,28.7-4.8,39.6-14.6c10.6-9.2,16.7-22.5,16.9-36.5H93.1v-23.7
	H171.8z M614.4,678.5V731h89.8v23.1h-89.4v55.7h101.6v24.8H587.1v-181h129.3v24.9L614.4,678.5z M559.1,653.7v181h-26.4V691
	c-3.4,10.1-8,22.6-13.7,37.3l-40.6,106.3H455l-41.3-106.3c-4.9-13.2-9.5-25.5-13.4-36.7v143h-26.7v-181h37.9l36.8,96.3
	c7.5,19.5,13.5,36.3,18.3,50.2c5.5-16.4,11.7-34.2,18.9-52.7l35.9-93.7L559.1,653.7z M907.9,669.1c-12.7-10.9-29.1-16.4-45.7-15.4
	h-76.8v181h27.7v-66.3h49.4c16.7,1,33-4.6,45.7-15.4c21.8-23.6,21.8-59.9,0-83.5L907.9,669.1z M813.2,678.1H862
	c9.3-0.7,18.6,2.4,25.7,8.5c6.2,6.6,9.4,15.4,8.8,24.4c0.6,8.9-2.6,17.7-8.8,24.2c-7.1,6.1-16.3,9.1-25.7,8.4h-48.8L813.2,678.1z
	 M1230.8,784.5c0.5,15.5-6.6,30.3-18.9,39.8c-15.2,10.4-33.4,15.5-51.8,14.5c-19.9,1.2-39.6-4.6-55.7-16.3
	c-13.7-11.8-21.2-29.3-20.3-47.3h27.6c-0.6,11.5,4,22.6,12.6,30.3c10.6,7.4,23.4,10.9,36.3,10c10.7,0.7,21.4-2,30.6-7.7
	c7.1-5.1,11.1-13.5,10.7-22.2c0.3-7.2-3-14-8.8-18.2c-9.7-5.9-20.5-9.9-31.7-11.8l-15.4-3.3c-15.4-2.3-30-8.6-42.2-18.3
	c-9.7-9.1-15-21.9-14.3-35.2c-0.4-14,6.1-27.4,17.3-35.8c13.8-9.6,30.5-14.3,47.3-13.3c19.1-1.3,38,4.1,53.5,15.2
	c12.3,10.5,19.2,25.9,18.9,42h-27.4c-0.1-9.8-4.2-19-11.5-25.6c-9.8-6.2-21.4-9.1-32.9-8.1c-9.4-0.6-18.8,1.7-27,6.5
	c-10.7,8.4-12.6,23.9-4.2,34.7c0.9,1.1,1.9,2.2,3,3.2c9.3,6,19.8,9.9,30.8,11.5l15.7,3.3c16.3,2.4,31.7,8.9,44.7,18.9
	C1226.6,760,1231.3,772.1,1230.8,784.5L1230.8,784.5z M1391.7,784.5c0.5,15.5-6.6,30.3-18.9,39.8c-15.2,10.4-33.4,15.5-51.8,14.5
	c-19.9,1.2-39.6-4.6-55.7-16.3c-13.7-11.8-21.2-29.3-20.3-47.3h27.6c-0.6,11.5,4,22.6,12.6,30.3c10.6,7.4,23.4,10.9,36.3,10
	c10.8,0.7,21.5-2,30.7-7.7c7.1-5.1,11.1-13.5,10.7-22.2c0.3-7.2-3-14-8.8-18.2c-9.7-5.8-20.4-9.9-31.6-11.8l-15.4-3.3
	c-15.4-2.3-30-8.6-42.2-18.3c-9.7-9.1-15-21.9-14.3-35.2c-0.4-14,6.1-27.4,17.3-35.8c13.7-9.5,30.1-14.2,46.8-13.3
	c19.1-1.4,38.1,4,53.6,15.2c12.1,10.6,18.9,26,18.5,42h-27.4c-0.1-9.8-4.2-19-11.5-25.6c-9.8-6.2-21.4-9.1-32.9-8.1
	c-9.4-0.6-18.8,1.7-27,6.5c-6.3,4.1-10,11.4-9.5,18.9c-0.6,7.3,2.6,14.4,8.3,18.9c9.3,6,19.8,10,30.8,11.5l15.7,3.3
	c16.2,2.4,31.6,8.9,44.6,18.9C1387,759.9,1392.1,771.9,1391.7,784.5z M1007.2,653.7H976l-70.7,181h28.4l17.5-47.3h80.3l17.4,47.3
	h28.4L1007.2,653.7z M959.9,763.6l31.3-82.8l31.2,82.8H959.9z"/>
</svg>
